<?xml version="1.0" encoding="UTF-8"?>
<svg id="Layer_1" xmlns="http://www.w3.org/2000/svg" version="1.1" viewBox="0 0 400 400">
  <defs>
    <style>
      .st0 {
        fill: none;
      }

      .st2 {
        fill: #d0ff00;
      }
    </style>
  </defs>
  <rect class="st0" width="400" height="400"/>
  <path class="st2" d="M0,0v400h400V0H0ZM390,320.9H9.1V10.8h380.8v310.1ZM46.9,36l-1.7,3,1.7,2.9h-4.3l2.1-3.7h0s1.8-3,1.8-3h0s5.5-9.6,5.5-9.6h-10s1.7,3,1.7,3h3.1l-2.1,3.5-2-3.5h0l-1.7-3h0l-5.7-9.8-5.2,9h3.5l1.5-2.6,2.1,3.5h-4.1s0,0,0,0h-3.6s-11.2,0-11.2,0l5.1,8.9,1.7-3-1.7-2.9h4.3l-1.7,2.9h0s-2.2,3.9-2.2,3.9h0s-5.5,9.6-5.5,9.6h10s-1.7-3-1.7-3h-3.1l2-3.5,2,3.5h0l1.7,3h0l5.7,9.9,5.2-9h-3.7s-1.6,2.6-1.6,2.6l-2-3.5h4.1s0,0,0,0h3.7s11.2,0,11.2,0l-5.1-8.9ZM38.9,41.9h-7.6l-3.8-6.6,3.9-6.8h7.6l3.9,6.6-4,6.7Z"/>
</svg>
