<?xml version="1.0" encoding="UTF-8"?>
<svg id="Layer_1" data-name="Layer 1" xmlns="http://www.w3.org/2000/svg" version="1.1" viewBox="0 0 512 512">
  <defs>
    <style>
      .cls-1 {
        fill: gold;
      }

      .cls-1, .cls-2 {
        stroke-width: 0px;
      }

      .cls-2 {
        fill: #010101;
        fill-rule: evenodd;
      }
    </style>
  </defs>
  <rect class="cls-1" width="512" height="512" rx="64" ry="64"/>
  <path class="cls-2" d="M393.4,265.1l-20.9,36.6,20.9,34.8h-52.2l26.1-45.3h0l20.9-36.6h0l66.2-114.9h-120.1l20.9,36.6h38.3l-24.4,41.8-24.4-41.8h0l-20.9-36.6h0L255.9,21.3l-62.7,107.9h41.8l19.2-31.3,24.4,41.8H52.2l60.9,106.2,20.9-36.6-19.2-34.8h52.2l-19.2,34.8h0l-26.1,47h0l-66.2,114.9h120.1l-20.9-36.6h-36.6l24.4-41.8,24.4,41.8h0l20.9,36.6h0l67.9,118.4,62.7-107.9h-43.5l-19.2,31.3-24.4-41.8h226.3l-60.9-106.2h-3.5ZM297.7,334.7h-90.5l-45.3-78.3,47-81.8h90.5l47,78.3s-48.8,81.8-48.8,81.8Z"/>
</svg>